<svg xmlns="http://www.w3.org/2000/svg" width="32" height="32"><path d="M32 16a16 16 0 10-18.453 15.785v-11.2h-4.16V16h4.053v-3.52c0-4.053 2.347-6.186 6.08-6.186a25.88 25.88 0 013.627.32v3.946H21.12a2.263 2.263 0 00-2.56 2.453V16h4.48l-.747 4.586H18.56v11.2A15.968 15.968 0 0032 16z" fill="#1877f2"/><path d="M22.245 20.473l.754-4.632h-4.525v-3.017a2.292 2.292 0 012.586-2.478h2.047V6.36a24.162 24.162 0 00-3.663-.323c-3.663 0-6.141 2.262-6.141 6.248v3.552H9.317v4.632h4.094v11.315a19.232 19.232 0 002.478.215 17.682 17.682 0 002.478-.215V20.473z" fill="#fff"/></svg>