<svg xmlns="http://www.w3.org/2000/svg" width="30" height="34"><path d="M11.435 11.56V8.976c0-.408 0-.68.135-.816a1.677 1.677 0 013.229 0v5.44a1.829 1.829 0 01-1.211 1.224H8.879c-.4 0-.673 0-.807-.136a1.705 1.705 0 010-3.264 1.443 1.443 0 01.807-.136h2.556zm14.126 18.088H4.3v-18.9c0-.272.135-.408.269-.68l5.521-5.58a1.022 1.022 0 01.673-.272h14.8zM27.982 0H9.552a3 3 0 00-2.018 1.088L1.076 7.616A3.054 3.054 0 000 9.656v22.576A2.018 2.018 0 001.883 34h26.234A2.316 2.316 0 0030 32.232V1.9A2.629 2.629 0 0027.982 0z" fill="#41c9b4" fill-rule="evenodd"/></svg>