<svg xmlns="http://www.w3.org/2000/svg" width="240" height="61.001"><path d="M0 37.078V0h240v37.078L120 61z" fill="#B98966"/><path d="M70.915 18.86a.868.868 0 01-.87-.855.871.871 0 01.87-.87.868.868 0 01.855.87.864.864 0 01-.855.855zm-9.57-.51a16.7 16.7 0 01-1.785-.12v2.115c.39-.03 1.095-.06 1.785-.06h6.99a9.632 9.632 0 01-1.77 4.23 9.858 9.858 0 01-5.88 3.525l1.635 1.785a11.871 11.871 0 006.03-4.14 15.142 15.142 0 002.25-5.46l.12-.45a.855.855 0 00.195.015 1.8 1.8 0 001.785-1.785 1.8 1.8 0 00-1.785-1.8 1.805 1.805 0 00-1.8 1.8 1.661 1.661 0 00.03.285 6.64 6.64 0 01-.855.06zm23.58 1.95v6.225H77.68V20.3zm2.01-.48c0-.45 0-1.005.03-1.455-.54.03-1.11.03-1.485.03h-8.25c-.4 0-.975-.015-1.59-.03.03.42.03 1.035.03 1.455v7.335c0 .72-.03 2.025-.045 2.1h2.07l-.015-.825h7.23l-.01.825h2.07c0-.06-.03-1.5-.03-2.085zm15.435-1.05a21.962 21.962 0 00-1.185-2.055l-1.185.48a17.4 17.4 0 011.1 1.935l-.105-.06a4.725 4.725 0 01-1.3.18H96.67l.045-.075c.18-.33.57-1.005.93-1.53l-2.205-.72a6.558 6.558 0 01-.675 1.575 12.834 12.834 0 01-4.68 4.815l1.68 1.26a16.468 16.468 0 003.78-3.63h4.23a10.611 10.611 0 01-2.13 4.08 12 12 0 01-6.045 3.72l1.77 1.59a13.97 13.97 0 006.045-4.245 15.138 15.138 0 002.625-5.01 6.356 6.356 0 01.495-1.065l-1.275-.78zm-.6-2.25a14.276 14.276 0 011.2 2.07l1.2-.51a21.416 21.416 0 00-1.215-2.04zm15.7 4.5a3.164 3.164 0 01-1.095.15h-7.42c-.465 0-1.11-.03-1.74-.09v1.95c.63-.06 1.38-.075 1.74-.075h7.245a6.508 6.508 0 01-1.545 2.6 10.109 10.109 0 01-5.2 2.625l1.495 1.69a11.232 11.232 0 005.355-3.24 10.78 10.78 0 002.22-4.155 5.558 5.558 0 01.285-.63zm-8.87-1.59c.435-.03 1.08-.045 1.56-.045h5.74c.54 0 1.245.015 1.65.045v-1.935a14.142 14.142 0 01-1.62.075h-5.775a12.644 12.644 0 01-1.56-.075zm26.7 9.345a46.133 46.133 0 00-3.285-6.24l-1.88.765a18.132 18.132 0 011.575 2.745c-1.515.18-3.645.42-5.475.6.75-2.01 1.965-5.82 2.445-7.29a17.066 17.066 0 01.645-1.665l-2.385-.48a11.131 11.131 0 01-.36 1.725c-.435 1.56-1.725 5.67-2.6 7.89l-.4.015c-.5.015-1.14.015-1.65.015l.345 2.19c.48-.06 1.035-.135 1.41-.18 1.89-.195 6.435-.675 8.88-.96.27.645.51 1.26.705 1.77zm2.52-3.7a10.906 10.906 0 01-.8 3.48 8.817 8.817 0 011.365.645 13.869 13.869 0 00.9-3.87zm3.255.27a17.749 17.749 0 01.87 2.79l1.32-.48a16.538 16.538 0 00-.93-2.7zm2.44 2.71a25.009 25.009 0 015.64 2.385l1.035-1.395a29.636 29.636 0 00-5.64-2.245zm1.62-2.67a13.559 13.559 0 013.075 1.755l1.035-1.245a15.385 15.385 0 00-3.105-1.635zm3.135-6.135a9.3 9.3 0 01-1.305 1.695 10.449 10.449 0 01-1.3-1.695zm1.215-1.59l-.27.06h-2.67c.21-.375.39-.765.555-1.14l-1.74-.28a10.233 10.233 0 01-3.255 4.3 4.991 4.991 0 011.23 1.155 12.12 12.12 0 001.335-1.29 12.341 12.341 0 001.14 1.5 12.109 12.109 0 01-2.775 1.59 15.005 15.005 0 00-1.1-2.415l-1.185.495c.18.33.36.7.525 1.08l-1.44.06c.945-1.215 1.98-2.73 2.805-4.035l-1.455-.675a27.2 27.2 0 01-1.33 2.435c-.15-.2-.33-.39-.51-.6.54-.825 1.14-2 1.68-3.015l-1.545-.57a19.016 19.016 0 01-1.1 2.61l-.345-.3-.855 1.215a14.719 14.719 0 011.77 2.04c-.24.345-.48.675-.705.96l-1.08.045.15 1.545 2.185-.14v6.03h1.54v-6.135l.765-.06c.075.27.135.51.18.735l1.1-.495a4.539 4.539 0 01.525.81 13.6 13.6 0 003.375-2.04 11.66 11.66 0 003.4 2.115 7.413 7.413 0 011.125-1.45 11.113 11.113 0 01-3.33-1.77 11.764 11.764 0 002.415-3.75zm15.225-.435l-.435.12h-10.23V19.1h8.7a17.219 17.219 0 01-2.6 2.3h-1.005v6.8c0 .255-.1.33-.435.33a35.05 35.05 0 01-2.625-.045 7.811 7.811 0 01.71 1.815 10.54 10.54 0 003.255-.3c.735-.27.99-.75.99-1.785v-5.32a22.982 22.982 0 005.07-4.635zm6.9-.915a12.533 12.533 0 01-2.94 2.97 13.649 13.649 0 01.93 1.305 18.441 18.441 0 003.585-3.66zm.27 3.2a12.591 12.591 0 01-3.345 3.855 10.834 10.834 0 01.93 1.665 13.279 13.279 0 001.17-1.11v6.42h1.665v-8.43a20.1 20.1 0 001.14-1.815zm4.38 5.88h2.91a6.679 6.679 0 01-1.44 1.47 6.849 6.849 0 01-1.485-1.46zm4.125-1.395l-.285.06h-2.715c.21-.285.4-.585.585-.885.975-.03 1.995-.06 2.985-.105a8.659 8.659 0 01.495.99l1.5-.84a14.789 14.789 0 00-2.28-3.285l-1.38.765c.255.3.51.615.75.96l-2.685.045a47.937 47.937 0 003.675-3.48l-1.575-.87A26.914 26.914 0 01177.04 20a11.278 11.278 0 00-.855-.75c.63-.63 1.365-1.44 2.01-2.22l-1.545-.8a15.536 15.536 0 01-1.605 2.175c-.285-.2-.57-.375-.825-.54l-1.065 1.155a17.063 17.063 0 012.64 2.13c-.21.2-.435.39-.645.57-.855.015-1.635.015-2.31.015l.15 1.575 3-.09a9.682 9.682 0 01-3.345 2.78 10.4 10.4 0 011.155 1.32 14.511 14.511 0 001.35-.93 8.171 8.171 0 001.185 1.3 12.968 12.968 0 01-3.69 1.17 5.8 5.8 0 01.855 1.52 14.66 14.66 0 004.245-1.6 12.15 12.15 0 004.14 1.575 6.67 6.67 0 011.065-1.535 13.46 13.46 0 01-3.735-1.095 8.193 8.193 0 002.28-3.24z" fill="#fff"/></svg>