<svg xmlns="http://www.w3.org/2000/svg" width="236.604" height="330.219"><path d="M92.198 77.811l-5.538-3.772.147-12.925-19.286-1.724.1 6.347-14.935 21.08-.627 24.66-19.179 31.861 5.929 13.828-7.141 17.12-2.945 16.08 8.119 4.489-18.493 27.74-11.448 1.321-6.9 12.48 22.315 15.259 10.568 24.658 3.962 18.053-7.045 27.3 5.847 8.554 12.654-1.795 15.426 1.7 6.97-6.765 30.656-18.081.957-13.733-.3-19.631 7.045-6.6 1.664-10.769-.406-15.545 6.442-15.586 6.39.07 12.293-14.04 13.245 5.234 15.072 3.429 11.737 4.47 7.009-7.243-14.054-14.906-2.592-12.609-3.854-8.327-.108-15.45 8.657-8.983-3.374-13.473-12.769 2.2s-10.567-.88-11.448-2.2-9.247-12.329-9.247-12.329l9.687-25.1 7.486-4.4 1.321-7.926 20.694-7.485 2.1-10.353-3.872-8.087-8.285-6.28-7.957-17.53-15.759 4.081-5.86 15.273-12.769 12.329-11.448.44-9.247-1.321z" fill="#ffc78e"/><g transform="translate(-851.496 -5323.852)" fill="#5c2a00"><circle cx="3.5" cy="3.5" r="3.5" transform="translate(957.719 5423.245)"/><path d="M1055.62 5472.448a19.242 19.242 0 01-2.674 1.764 7.38 7.38 0 01-1.3-1.764zm.028 0h1.582v-1.162h-8.736v-.98h6.93v-1.036h-6.93v-.966h6.93v-1.036h-6.93v-.966h7.336v-1.092h-8.652v6.076h-2.408v1.162h2.394v3.556c-.644.1-1.246.182-1.75.252l.308 1.19c1.666-.266 4.018-.644 6.216-1.022l-.07-1.148-3.374.518v-3.346h1.82a8.5 8.5 0 006.342 5.124 4.5 4.5 0 01.826-1.162 9.424 9.424 0 01-3.682-1.484 21.36 21.36 0 002.9-1.764zm5.838-3.724h1.4v1.314h-1.4zm0-2.3h1.4v1.3h-1.4zm3.878 1.3h-1.386v-1.3h1.386zm0 2.31h-1.386v-1.31h1.386zm-1.3 3.612h2.422v-1.17h-2.424v-1.386h2.422v-5.712h-6.076v5.712h2.392v1.386h-2.392v1.176h2.392v1.806c-1.078.14-2.058.252-2.828.336l.142 1.274c1.764-.252 4.312-.588 6.706-.952l-.028-1.148c-.91.126-1.834.238-2.73.35zm8.006-3.816l-.21.042h-.6l.308-.336a10.14 10.14 0 00-1.178-.938 13.142 13.142 0 002.324-2.688l-.84-.588-.266.07h-4.676v1.162h3.78a11.081 11.081 0 01-1.26 1.428 19.36 19.36 0 00-1.3-.714l-.812.8a16.441 16.441 0 012.76 1.804h-3.336v1.232h2.072v4.928c0 .182-.07.238-.28.238s-.924.014-1.666-.014a4.534 4.534 0 01.392 1.288 5.867 5.867 0 002.24-.238c.476-.2.6-.574.6-1.246v-4.956h1.318a17.926 17.926 0 01-.63 2.072l1.05.262a23.241 23.241 0 001.092-3.4zm16.03-2.03v-1.262h-5.642v-1.918h-1.386v1.918h-5.544v1.26h5.558v1.71h-4.172v6.342h1.3v-5.068h2.87v6.79h1.346v-6.79h3.094v3.514c0 .2-.07.252-.308.266s-1.064.014-1.9-.028a4.693 4.693 0 01.444 1.288 7.457 7.457 0 002.45-.224c.5-.21.658-.588.658-1.274v-4.816h-4.438v-1.708z"/></g><g fill="#5c2a00"><path d="M202.64 172.487a21.087 21.087 0 002.394 5.63 4.793 4.793 0 011.064-1.064 16.388 16.388 0 01-2.268-4.928zm-2.646-.322a11.979 11.979 0 01-2.212 5.166 7.191 7.191 0 011.12.868 15.6 15.6 0 002.436-5.768zm-1.652 7.28c-.266-.378-1.484-1.988-1.89-2.45v-.994h1.708v-1.2h-1.708v-2.926h-1.218v2.922h-1.974v1.2h1.834a14.786 14.786 0 01-2.17 5.03 7.255 7.255 0 01.644 1.176 13.829 13.829 0 001.666-3.556v6.062h1.218v-6.174a19.783 19.783 0 011.12 1.932zm4.368.882c.42.672.854 1.47 1.232 2.226-1.148.07-2.3.14-3.346.2.658-1.488 1.386-3.476 1.918-5.142l-1.484-.364a39.623 39.623 0 01-1.75 5.57l-1.442.07.224 1.318c1.708-.112 4.116-.294 6.426-.476a10.668 10.668 0 01.378 1.008l1.218-.63a23.136 23.136 0 00-2.254-4.34zm18.284-4.31v-1.318h-5.418v-2.828h-1.372v2.828h-5.362v1.318h4.578a13 13 0 01-5.068 5.5 7.517 7.517 0 01.924 1.078 14.222 14.222 0 004.928-5.4v3.722h-2.562v1.316h2.562v2.476h1.372v-2.478h2.506v-1.314h-2.506v-3.74a13.589 13.589 0 004.956 5.376 5.908 5.908 0 01.98-1.148 12.439 12.439 0 01-5.138-5.388zm15.61-1.038v-1.262h-5.642v-1.918h-1.386v1.918h-5.544v1.26h5.558v1.71h-4.172v6.342h1.3v-5.068h2.87v6.79h1.346v-6.79h3.094v3.514c0 .2-.07.252-.308.266s-1.064.014-1.9-.028a4.693 4.693 0 01.444 1.288 7.457 7.457 0 002.45-.224c.5-.21.658-.588.658-1.274v-4.816h-4.438v-1.708z"/><g transform="translate(-858.996 -4887)"><path d="M1045.5 5065h-99v-1h99z"/><circle cx="3.5" cy="3.5" r="3.5" transform="translate(943 5061)"/></g><path d="M186.124 148.451h-77.12v-43.373h1v42.373h76.12z"/></g><path d="M131.676 93.32v-.226l.587-.441v-.525l-.755-.461v-.406l-.569-.615h-1.1v.379l-.1.083h-.27l-.378-.441h-.567l-1.437 1.089v.26l-.186.2h-.389l-.168-.21h-.574l-.168.168h-.508v.986h-.378v.577l-.608.315v.526l.252.21v.554l-.346.754-.01.6h.666l.315.189h1.218l.53-.125h.768l.419-.21h.67l.272.189h.391l.8.776h.72l1.132-.51v-.968l.717-.369.2-.483.008-.463z" fill="#a35200"/><path d="M129.254 93.086h-2V33.5h2z" fill="#a35200"/><g transform="translate(-859.996 -4887)"><rect width="103" height="34" rx="6" transform="translate(937 4887)" fill="#a35200"/><path d="M960.768 4896.544v12.144c0 .32-.128.432-.5.432a30.93 30.93 0 01-2.556-.048 9.522 9.522 0 01.928 2.416 9.115 9.115 0 003.584-.432c.816-.384 1.104-1.008 1.104-2.356v-12.16zm3.84 4.272a28.851 28.851 0 012.692 7.392l2.556-1.008a28.537 28.537 0 00-2.96-7.232zm-8.032-.656a15.794 15.794 0 01-2.3 6.5 13.094 13.094 0 012.284 1.212c1.28-1.772 2.128-4.816 2.672-7.264zm30.288.56v-2.22h-7.632c.208-.56.384-1.12.544-1.68l-2.416-.544a20.483 20.483 0 01-.66 2.224h-4.32v2.22h3.344a11.886 11.886 0 01-3.964 4.624 14.032 14.032 0 011.312 2.064 12.5 12.5 0 001.856-1.568v4.288h2.336v-5.072h2.048v6.444h2.352v-6.444h2.128v2.656c0 .192-.08.256-.32.256-.208 0-1.04 0-1.616-.032a8.239 8.239 0 01.72 2.112 6.517 6.517 0 002.672-.348c.7-.336.912-.912.912-1.936v-4.9h-4.5v-1.664h-2.348v1.664h-2.1a20.959 20.959 0 001.12-2.144zm9.28 3.712l.016-1.332v-.848h-2.832l.048-1.44h2.4l-.1.1a15.483 15.483 0 011.524 1.424v1.6zm3.956 5.152c-.752 0-.848-.08-.848-.784v-3.52l.5-.24v3.424h1.92v-4.3l.608-.288c0 1.264 0 1.888-.016 2-.016.16-.064.192-.176.192a3.088 3.088 0 01-.368-.016 5.515 5.515 0 01.4 1.664 2.948 2.948 0 001.392-.24 1.251 1.251 0 00.672-1.232c.032-.512.032-1.92.032-4.192l.08-.3-1.424-.48-.352.224-.128.08-.72.336v-1.3h-1.92v2.176l-.5.224v-1.3h-1.12a10.525 10.525 0 00.848-1.376h5.552v-2.1h-4.676c.16-.48.3-.976.432-1.472L998 4896.3a10.158 10.158 0 01-1.408 3.52v-1.152h-2.336v-2.336h-2.224v2.336h-2.288v2.144h1.44c-.048 3.568-.16 6.864-1.7 9.04a6.391 6.391 0 011.636 1.648c1.328-1.84 1.856-4.352 2.1-7.152h.848c-.048 3.392-.112 4.624-.288 4.928a.456.456 0 01-.448.256 7.956 7.956 0 01-.976-.048 5.411 5.411 0 01.544 2.052 6.836 6.836 0 001.632-.112 1.54 1.54 0 001.1-.768c.352-.512.432-2.016.5-5.616l.592 1.408.48-.224v2.576c0 2.1.544 2.7 2.64 2.7h2.544c1.664 0 2.256-.64 2.5-2.736a6.01 6.01 0 01-1.856-.784c-.1 1.344-.224 1.6-.832 1.6zm10.364-10.576v2.692h-.72v-2.688zm2.56 2.692h-.784v-2.688h.784zm-.784 4.828v-2.848h.784v2.848zm-2.5-2.848h.72v2.848h-.72zm5.28-6.688h-7.212v12.752h1.936v-1.2h5.28zm7.412 1.008h-7.072v2.272h2.768v8.628c0 .256-.112.352-.4.352s-1.376.016-2.16-.048a8.784 8.784 0 01.768 2.32 7.4 7.4 0 003.2-.416c.752-.368.992-.992.992-2.16v-8.676h1.9z" fill="#fff"/></g></svg>