<svg xmlns="http://www.w3.org/2000/svg" width="236.604" height="330.219" viewBox="0 0 236.604 330.219"><g transform="translate(7224.503 -5784.781)"><path d="M4589.171-178.937l-5.538-3.772.147-12.925-19.286-1.724.1,6.347-14.935,21.08-.627,24.66-19.179,31.861,5.929,13.828-7.141,17.12-2.945,16.08,8.119,4.489-18.493,27.74-11.448,1.321-6.9,12.48,22.315,15.259,10.568,24.658,3.962,18.053-7.045,27.3,5.847,8.554,12.654-1.795,15.426,1.7,6.97-6.765,30.656-18.081.957-13.733-.3-19.631,7.045-6.6,1.664-10.769-.406-15.545,6.442-15.586,6.39.07,12.293-14.04,13.245,5.234,15.072,3.429,11.737,4.47,7.009-7.243-14.054-14.906-2.592-12.609-3.854-8.327-.108-15.45,8.657-8.983-3.374-13.473-12.769,2.2s-10.567-.88-11.448-2.2-9.247-12.329-9.247-12.329l9.687-25.1,7.486-4.4,1.321-7.926,20.694-7.485,2.1-10.353-3.872-8.087-8.285-6.28-7.957-17.53-15.759,4.081-5.86,15.273-12.769,12.329-11.448.44-9.247-1.321Z" transform="translate(-11721.477 6041.529)" fill="#d3c177"/><g transform="translate(-8076 460.929)"><circle cx="3.5" cy="3.5" r="3.5" transform="translate(957.719 5423.245)" fill="#313131"/><path d="M11.62-3.99A19.242,19.242,0,0,1,8.946-2.226a7.38,7.38,0,0,1-1.3-1.764Zm.028,0H13.23V-5.152H4.494v-.98h6.93V-7.168H4.494v-.966h6.93V-9.17H4.494v-.966H11.83v-1.092H3.178v6.076H.77V-3.99H3.164V-.434c-.644.1-1.246.182-1.75.252l.308,1.19C3.388.742,5.74.364,7.938-.014l-.07-1.148L4.494-.644V-3.99h1.82a8.5,8.5,0,0,0,6.342,5.124,4.5,4.5,0,0,1,.826-1.162A9.424,9.424,0,0,1,9.8-1.512a21.36,21.36,0,0,0,2.9-1.764Zm5.838-3.724h1.4V-6.4h-1.4Zm0-2.3h1.4v1.3h-1.4Zm3.878,1.3H19.978v-1.3h1.386Zm0,2.31H19.978V-7.714h1.386Zm-1.3,3.612h2.422V-3.962H20.062V-5.348h2.422V-11.06H16.408v5.712H18.8v1.386H16.408v1.176H18.8V-.98c-1.078.14-2.058.252-2.828.336L16.114.63C17.878.378,20.426.042,22.82-.322L22.792-1.47c-.91.126-1.834.238-2.73.35ZM28.07-6.608l-.21.042h-.6l.308-.336A10.14,10.14,0,0,0,26.39-7.84a13.142,13.142,0,0,0,2.324-2.688l-.84-.588-.266.07H22.932v1.162h3.78a11.081,11.081,0,0,1-1.26,1.428c-.434-.266-.882-.5-1.3-.714l-.812.8A16.441,16.441,0,0,1,26.1-6.566H22.764v1.232h2.072V-.406c0,.182-.07.238-.28.238s-.924.014-1.666-.014a4.534,4.534,0,0,1,.392,1.288,5.867,5.867,0,0,0,2.24-.238c.476-.2.6-.574.6-1.246V-5.334H27.44a17.926,17.926,0,0,1-.63,2.072L27.86-3a23.241,23.241,0,0,0,1.092-3.4ZM44.1-8.638V-9.9H38.458v-1.918H37.072V-9.9H31.528v1.26h5.558V-6.93H32.914V-.588h1.3V-5.656h2.87v6.79H38.43v-6.79h3.094v3.514c0,.2-.07.252-.308.266s-1.064.014-1.9-.028A4.693,4.693,0,0,1,39.76-.616,7.457,7.457,0,0,0,42.21-.84c.5-.21.658-.588.658-1.274V-6.93H38.43V-8.638Z" transform="translate(1044 5476.438)" fill="#313131"/></g><g transform="translate(-8076 460.929)"><path d="M10.136-11.13A21.087,21.087,0,0,0,12.53-5.5a4.793,4.793,0,0,1,1.064-1.064,16.388,16.388,0,0,1-2.268-4.928ZM7.49-11.452A11.979,11.979,0,0,1,5.278-6.286a7.191,7.191,0,0,1,1.12.868,15.6,15.6,0,0,0,2.436-5.768ZM5.838-4.172c-.266-.378-1.484-1.988-1.89-2.45v-.994H5.656v-1.2H3.948v-2.926H2.73V-8.82H.756v1.2H2.59A14.786,14.786,0,0,1,.42-2.59a7.255,7.255,0,0,1,.644,1.176A13.829,13.829,0,0,0,2.73-4.97V1.092H3.948V-5.082A19.783,19.783,0,0,1,5.068-3.15Zm4.368.882c.42.672.854,1.47,1.232,2.226-1.148.07-2.3.14-3.346.2C8.75-2.352,9.478-4.34,10.01-6.006L8.526-6.37A39.623,39.623,0,0,1,6.776-.8l-1.442.07L5.558.588C7.266.476,9.674.294,11.984.112a10.668,10.668,0,0,1,.378,1.008L13.58.49a23.136,23.136,0,0,0-2.254-4.34ZM28.49-7.6V-8.918H23.072v-2.828H21.7v2.828H16.338V-7.6h4.578a13,13,0,0,1-5.068,5.5,7.517,7.517,0,0,1,.924,1.078,14.222,14.222,0,0,0,4.928-5.4V-2.7H19.138v1.316H21.7V1.092h1.372V-1.386h2.506V-2.7H23.072V-6.44a13.589,13.589,0,0,0,4.956,5.376,5.908,5.908,0,0,1,.98-1.148A12.439,12.439,0,0,1,23.87-7.6ZM44.1-8.638V-9.9H38.458v-1.918H37.072V-9.9H31.528v1.26h5.558V-6.93H32.914V-.588h1.3V-5.656h2.87v6.79H38.43v-6.79h3.094v3.514c0,.2-.07.252-.308.266s-1.064.014-1.9-.028A4.693,4.693,0,0,1,39.76-.616,7.457,7.457,0,0,0,42.21-.84c.5-.21.658-.588.658-1.274V-6.93H38.43V-8.638Z" transform="translate(1044 5507.469)" fill="#313131"/><g transform="translate(-7.5 436.852)"><path d="M99,.5H0v-1H99Z" transform="translate(946.5 5064.5)" fill="#313131"/><circle cx="3.5" cy="3.5" r="3.5" transform="translate(943 5061)" fill="#313131"/></g><path d="M-3169.661,5035.451h-77.12v-43.373h1v42.373h76.12Z" transform="translate(4207.281 436.852)" fill="#313131"/></g><g transform="translate(-8076 460.929)"><path d="M-1616.517,322.317v-.226l.587-.441v-.525l-.755-.461v-.406l-.569-.615h-1.1v.379l-.1.083h-.27l-.378-.441h-.567l-1.437,1.089v.26l-.186.2h-.389l-.168-.21h-.574l-.168.168h-.508v.986h-.378v.577l-.608.315v.526l.252.21v.554l-.346.754-.01.6h.666l.315.189h1.218l.53-.125h.768l.419-.21h.67l.272.189h.391l.8.776h.72l1.132-.51v-.968l.717-.369.2-.483.008-.463Z" transform="translate(2599.689 5094.855)" fill="#b98966"/><path d="M1,59.586H-1V0H1Z" transform="translate(979.75 5357.352)" fill="#b98966"/><g transform="translate(-8.5 436.852)"><rect width="103" height="34" rx="6" transform="translate(937 4887)" fill="#b98966"/><path d="M6.768-13.456V-1.312c0,.32-.128.432-.5.432C5.92-.864,4.7-.864,3.712-.928A9.522,9.522,0,0,1,4.64,1.488a9.115,9.115,0,0,0,3.584-.432C9.04.672,9.328.048,9.328-1.3v-12.16Zm3.84,4.272A28.851,28.851,0,0,1,13.3-1.792L15.856-2.8a28.537,28.537,0,0,0-2.96-7.232ZM2.576-9.84a15.794,15.794,0,0,1-2.3,6.5A13.094,13.094,0,0,1,2.56-2.128C3.84-3.9,4.688-6.944,5.232-9.392Zm30.288.56V-11.5H25.232c.208-.56.384-1.12.544-1.68l-2.416-.544A20.483,20.483,0,0,1,22.7-11.5h-4.32V-9.28h3.344A11.886,11.886,0,0,1,17.76-4.656a14.032,14.032,0,0,1,1.312,2.064A12.5,12.5,0,0,0,20.928-4.16V.128h2.336V-4.944h2.048V1.5h2.352V-4.944h2.128v2.656c0,.192-.08.256-.32.256-.208,0-1.04,0-1.616-.032a8.239,8.239,0,0,1,.72,2.112A6.517,6.517,0,0,0,31.248-.3c.7-.336.912-.912.912-1.936v-4.9h-4.5V-8.8H25.312v1.664h-2.1a20.959,20.959,0,0,0,1.12-2.144Zm9.28,3.712L42.16-6.9v-.848H39.328l.048-1.44h2.4l-.1.1A15.483,15.483,0,0,1,43.2-7.664v1.6ZM46.1-.416c-.752,0-.848-.08-.848-.784V-4.72l.5-.24v3.424h1.92v-4.3l.608-.288c0,1.264,0,1.888-.016,2-.016.16-.064.192-.176.192a3.088,3.088,0,0,1-.368-.016,5.515,5.515,0,0,1,.4,1.664,2.948,2.948,0,0,0,1.392-.24,1.251,1.251,0,0,0,.672-1.232c.032-.512.032-1.92.032-4.192l.08-.3-1.424-.48-.352.224-.128.08-.72.336v-1.3h-1.92v2.176l-.5.224v-1.3h-1.12a10.525,10.525,0,0,0,.848-1.376h5.552v-2.1H45.856c.16-.48.3-.976.432-1.472L44-13.7a10.158,10.158,0,0,1-1.408,3.52v-1.152H40.256v-2.336H38.032v2.336H35.744v2.144h1.44c-.048,3.568-.16,6.864-1.7,9.04A6.391,6.391,0,0,1,37.12,1.5c1.328-1.84,1.856-4.352,2.1-7.152h.848c-.048,3.392-.112,4.624-.288,4.928a.456.456,0,0,1-.448.256,7.956,7.956,0,0,1-.976-.048A5.411,5.411,0,0,1,38.9,1.536a6.836,6.836,0,0,0,1.632-.112,1.54,1.54,0,0,0,1.1-.768c.352-.512.432-2.016.5-5.616l.592,1.408.48-.224V-1.2c0,2.1.544,2.7,2.64,2.7h2.544c1.664,0,2.256-.64,2.5-2.736a6.01,6.01,0,0,1-1.856-.784c-.1,1.344-.224,1.6-.832,1.6ZM56.464-10.992V-8.3h-.72v-2.688ZM59.024-8.3H58.24v-2.688h.784ZM58.24-3.472V-6.32h.784v2.848Zm-2.5-2.848h.72v2.848h-.72Zm5.28-6.688H53.808V-.256h1.936v-1.2h5.28ZM68.432-12H61.36v2.272h2.768V-1.1c0,.256-.112.352-.4.352s-1.376.016-2.16-.048a8.784,8.784,0,0,1,.768,2.32,7.4,7.4,0,0,0,3.2-.416c.752-.368.992-.992.992-2.16V-9.728h1.9Z" transform="translate(954 4910)" fill="#fff"/></g></g></g></svg>